<?xml version="1.0" standalone="no"?>
<svg xmlns:xlink="http://www.w3.org/1999/xlink" id="wave" style="transform:rotate(180deg); transition: 0.3s" viewBox="0 0 1440 220" version="1.1" xmlns="http://www.w3.org/2000/svg"><defs><linearGradient id="sw-gradient-0" x1="0" x2="0" y1="1" y2="0"><stop stop-color="rgba(45, 13, 227, 1)" offset="0%"/><stop stop-color="rgba(255, 255, 255, 1)" offset="100%"/></linearGradient></defs><path style="transform:translate(0, 0px); opacity:1" fill="url(#sw-gradient-0)" d="M0,0L48,14.7C96,29,192,59,288,88C384,117,480,147,576,139.3C672,132,768,88,864,80.7C960,73,1056,103,1152,99C1248,95,1344,59,1440,55C1536,51,1632,81,1728,110C1824,139,1920,169,2016,161.3C2112,154,2208,110,2304,106.3C2400,103,2496,139,2592,139.3C2688,139,2784,103,2880,73.3C2976,44,3072,22,3168,44C3264,66,3360,132,3456,143C3552,154,3648,110,3744,88C3840,66,3936,66,4032,62.3C4128,59,4224,51,4320,73.3C4416,95,4512,147,4608,139.3C4704,132,4800,66,4896,44C4992,22,5088,44,5184,73.3C5280,103,5376,139,5472,139.3C5568,139,5664,103,5760,80.7C5856,59,5952,51,6048,73.3C6144,95,6240,147,6336,165C6432,183,6528,169,6624,135.7C6720,103,6816,51,6864,25.7L6912,0L6912,220L6864,220C6816,220,6720,220,6624,220C6528,220,6432,220,6336,220C6240,220,6144,220,6048,220C5952,220,5856,220,5760,220C5664,220,5568,220,5472,220C5376,220,5280,220,5184,220C5088,220,4992,220,4896,220C4800,220,4704,220,4608,220C4512,220,4416,220,4320,220C4224,220,4128,220,4032,220C3936,220,3840,220,3744,220C3648,220,3552,220,3456,220C3360,220,3264,220,3168,220C3072,220,2976,220,2880,220C2784,220,2688,220,2592,220C2496,220,2400,220,2304,220C2208,220,2112,220,2016,220C1920,220,1824,220,1728,220C1632,220,1536,220,1440,220C1344,220,1248,220,1152,220C1056,220,960,220,864,220C768,220,672,220,576,220C480,220,384,220,288,220C192,220,96,220,48,220L0,220Z"/></svg>